#tb 0: 1/20
#media_type 0: video
#codec_id 0: rawvideo
#dimensions 0: 120x120
#sar 0: 0/1
0,          0,          0,        1,    57600, 0x5246edcf
0,          1,          1,        1,    57600, 0xb64fd9ce
0,          2,          2,        1,    57600, 0x6b35bd14
0,          3,          3,        1,    57600, 0xfc84aabe
0,          4,          4,        1,    57600, 0xc4706ea6
0,          5,          5,        1,    57600, 0x1b5537fd
0,          6,          6,        1,    57600, 0x6ce0d5fb
0,          7,          7,        1,    57600, 0xedfad31c
0,          8,          8,        1,    57600, 0x59c17ce2
0,          9,          9,        1,    57600, 0xc2646d21
0,         10,         10,        1,    57600, 0xc5e8074d
0,         11,         11,        1,    57600, 0x71a488cc
0,         12,         12,        1,    57600, 0xd0a1f8f1
0,         13,         13,        1,    57600, 0x9e7538e7
0,         14,         14,        1,    57600, 0x77996a87
0,         15,         15,        1,    57600, 0x03ac9b33
0,         16,         16,        1,    57600, 0x2e2eaf02
0,         17,         17,        1,    57600, 0x47279aae
0,         18,         18,        1,    57600, 0xa492772b
0,         19,         19,        1,    57600, 0xe28f704c
0,         20,         20,        1,    57600, 0xc375baad
0,         21,         21,        1,    57600, 0xe1b2bf3b
